HIERARCHY
ROOT hip
{
	OFFSET 0.000000 0.000000 0.000000
	CHANNELS 6 Xposition Yposition Zposition Zrotation Yrotation Xrotation 
	JOINT lhipjoint
	{
		OFFSET 0.000000 0.000000 0.000000
		CHANNELS 3 Zrotation Yrotation Xrotation
		JOINT lfemur
		{
			OFFSET 1.363060 -1.794630 0.839290
			CHANNELS 3 Zrotation Yrotation Xrotation
			JOINT ltibia
			{
				OFFSET 2.448110 -6.726130 0.000000
				CHANNELS 3 Zrotation Yrotation Xrotation
				JOINT lfoot
				{
					OFFSET 2.562200 -7.039590 0.000000
					CHANNELS 3 Zrotation Yrotation Xrotation
					JOINT ltoes
					{
						OFFSET 0.157640 -0.433110 2.322550
						CHANNELS 3 Zrotation Yrotation Xrotation
						End Site
						{
							OFFSET 0.000000 0.000000 0.000000
						}
					}
				}
			}
		}
	}
	JOINT rhipjoint
	{
		OFFSET 0.000000 0.000000 0.000000
		CHANNELS 3 Zrotation Yrotation Xrotation
		JOINT rfemur
		{
			OFFSET -1.305520 -1.794630 0.839290
			CHANNELS 3 Zrotation Yrotation Xrotation
			JOINT rtibia
			{
				OFFSET -2.542530 -6.985550 0.000000
				CHANNELS 3 Zrotation Yrotation Xrotation
				JOINT rfoot
				{
					OFFSET -2.568260 -7.056230 0.000000
					CHANNELS 3 Zrotation Yrotation Xrotation
					JOINT rtoes
					{
						OFFSET -0.164730 -0.452590 2.363150
						CHANNELS 3 Zrotation Yrotation Xrotation
						End Site
						{
							OFFSET 0.000000 0.000000 0.000000
						}
					}
				}
			}
		}
	}
	JOINT lowerback
	{
		OFFSET 0.000000 0.000000 0.000000
		CHANNELS 3 Zrotation Yrotation Xrotation
		JOINT upperback
		{
			OFFSET 0.028270 2.035590 -0.193380
			CHANNELS 3 Zrotation Yrotation Xrotation
			JOINT thorax
			{
				OFFSET 0.056720 2.048850 -0.042750
				CHANNELS 3 Zrotation Yrotation Xrotation
				JOINT lowerneck
				{
					OFFSET 0.000000 0.000000 0.000000
					CHANNELS 3 Zrotation Yrotation Xrotation
					JOINT upperneck
					{
						OFFSET -0.054170 1.746240 0.172020
						CHANNELS 3 Zrotation Yrotation Xrotation
						JOINT head
						{
							OFFSET 0.104070 1.761360 -0.123970
							CHANNELS 3 Zrotation Yrotation Xrotation
							End Site
							{
								OFFSET 0.000000 0.000000 0.000000
							}
						}
					}
				}
				JOINT lclavicle
				{
					OFFSET 0.000000 0.000000 0.000000
					CHANNELS 3 Zrotation Yrotation Xrotation
					JOINT lhumerus
					{
						OFFSET 3.362410 1.200890 -0.311210
						CHANNELS 3 Zrotation Yrotation Xrotation
						JOINT lradius
						{
							OFFSET 4.983000 -0.000000 -0.000000
							CHANNELS 3 Zrotation Yrotation Xrotation
							JOINT lwrist
							{
								OFFSET 3.483560 -0.000000 -0.000000
								CHANNELS 3 Zrotation Yrotation Xrotation
								JOINT lhand
								{
									OFFSET 0.000000 0.000000 0.000000
									CHANNELS 3 Zrotation Yrotation Xrotation
									JOINT lfingers
									{
										OFFSET 0.715260 -0.000000 -0.000000
										CHANNELS 3 Zrotation Yrotation Xrotation
										End Site
										{
											OFFSET 0.000000 0.000000 0.000000
										}
									}
								}
								JOINT lthumb
								{
									OFFSET 0.000000 0.000000 0.000000
									CHANNELS 3 Zrotation Yrotation Xrotation
									End Site
									{
										OFFSET 0.000000 0.000000 0.000000
									}
								}
							}
						}
					}
				}
				JOINT rclavicle
				{
					OFFSET 0.000000 0.000000 0.000000
					CHANNELS 3 Zrotation Yrotation Xrotation
					JOINT rhumerus
					{
						OFFSET -3.136600 1.374050 -0.404650
						CHANNELS 3 Zrotation Yrotation Xrotation
						JOINT rradius
						{
							OFFSET -5.241900 -0.000000 -0.000000
							CHANNELS 3 Zrotation Yrotation Xrotation
							JOINT rwrist
							{
								OFFSET -3.444170 -0.000000 -0.000000
								CHANNELS 3 Zrotation Yrotation Xrotation
								JOINT rhand
								{
									OFFSET 0.000000 0.000000 0.000000
									CHANNELS 3 Zrotation Yrotation Xrotation
									JOINT rfingers
									{
										OFFSET -0.622530 -0.000000 -0.000000
										CHANNELS 3 Zrotation Yrotation Xrotation
										End Site
										{
											OFFSET 0.000000 0.000000 0.000000
										}
									}
								}
								JOINT rthumb
								{
									OFFSET 0.000000 0.000000 0.000000
									CHANNELS 3 Zrotation Yrotation Xrotation
									End Site
									{
										OFFSET 0.000000 0.000000 0.000000
									}
								}
							}
						}
					}
				}
			}
		}
	}
}
MOTION
Frames: 5
Frame Time: 0.008333
-1.402013 18.901811 -0.204885 -175.055416 -59.307301 170.604823 -1.786033 3.035955 2.214689 -4.713888 10.649126 -5.390211 3.970610 11.238924 34.508246 -0.805800 10.715228 16.560229 3.971300 -12.122100 -36.165200 0.556460 -4.197903 1.905461 21.905185 12.354931 0.069876 -3.257152 -9.013105 30.209301 5.327063 -23.082716 -8.357095 -0.034500 -1.198800 3.295900 1.259173 -2.889846 2.693894 1.447093 -4.186848 -5.473344 6.392883 -1.109845 -5.018730 -7.633111 -19.552687 2.431551 1.029361 -25.555392 1.056193 4.404100 -11.836100 1.120900 -2.853212 3.535085 -0.177546 108.391623 -57.379991 -136.933173 18.809977 -31.206602 -4.304529 1.121381 0.444715 134.073402 13.593818 16.281888 4.057500 -7.125000 0.000000 0.000000 -12.170200 45.809900 -0.246900 6.517787 0.340465 -2.293843 -53.333805 24.327810 -6.278335 -16.789964 31.181517 -2.841026 -0.900837 -2.371529 66.191095 26.640964 -20.889324 -8.669800 7.125000 0.000000 0.000000 46.507800 -43.914400 1.635400 
-1.381822 18.910010 -0.231636 -175.174911 -59.410201 170.685587 -1.805880 3.046971 2.197145 -4.822662 11.223927 -5.569738 3.962461 11.198812 34.377281 -0.903803 11.144734 16.397435 4.100600 -12.293100 -36.777000 0.549933 -4.202790 1.911716 21.719454 11.977876 -0.207132 -3.277166 -9.060725 30.343081 5.205177 -22.612740 -7.900793 -0.048900 -1.427000 3.924600 1.298046 -3.008265 2.760700 1.482757 -4.343523 -5.470303 6.518964 -1.173075 -5.018285 -7.778405 -19.420105 2.247066 1.022757 -25.369240 1.092410 4.397100 -11.743800 1.186400 -2.907179 3.500830 -0.197374 108.306506 -57.525064 -136.541450 17.765496 -30.105606 -3.869529 1.008171 0.334280 131.892910 13.969327 13.460580 3.387600 -7.125000 0.000000 0.000000 -11.240300 42.987300 0.566000 6.657929 0.396682 -2.385607 -55.535859 23.892006 -1.241353 -16.717766 31.087211 -2.734761 -0.620863 -2.754508 60.966766 28.615566 -17.958900 -7.911600 7.125000 0.000000 0.000000 45.663000 -41.241700 5.631300 
-1.362348 18.916980 -0.258387 -175.265103 -59.495348 170.722371 -1.820618 3.058172 2.182073 -4.883670 11.726403 -5.672639 3.944908 11.151678 34.218981 -0.989215 11.496633 16.223240 4.216700 -12.443300 -37.318900 0.543844 -4.207536 1.916884 21.559123 11.567929 -0.447345 -3.293569 -9.101861 30.459576 5.080650 -22.134604 -7.466065 -0.062600 -1.614100 4.440400 1.366793 -3.110323 2.834311 1.510565 -4.475590 -5.463208 6.590146 -1.230087 -4.995098 -7.925372 -19.301661 2.076955 1.014347 -25.203517 1.155490 4.393100 -11.666400 1.266200 -2.951518 3.481014 -0.223909 108.377022 -57.746759 -136.495350 16.912372 -29.215894 -3.547908 0.922610 0.217182 130.418633 14.473413 11.175087 2.856400 -7.125000 0.000000 0.000000 -10.423200 40.687000 1.122400 6.751498 0.424972 -2.429586 -57.214159 23.630697 2.374804 -16.755315 31.168764 -2.678310 -0.357462 -2.972445 57.385320 29.877110 -15.687257 -7.121000 7.125000 0.000000 0.000000 44.931200 -39.190100 8.623600 
-1.343797 18.922515 -0.284728 -175.340758 -59.593668 170.757477 -1.832402 3.068480 2.170276 -4.918022 12.115984 -5.721636 3.917804 11.096770 34.027224 -1.062995 11.803184 16.081143 4.264400 -12.504200 -37.539800 0.538600 -4.210651 1.919799 21.419701 11.153420 -0.679972 -3.307735 -9.136978 30.557189 4.969975 -21.704696 -7.018402 -0.069900 -1.706300 4.694700 1.438879 -3.221475 2.890317 1.538881 -4.618463 -5.455069 6.654407 -1.296104 -4.950329 -8.089817 -19.187684 1.904168 1.024150 -25.040852 1.194857 4.404000 -11.586500 1.342400 -2.982380 3.475533 -0.249980 108.457620 -57.990432 -136.678949 16.234537 -28.529086 -3.322580 0.862061 0.093388 129.746750 15.138685 9.390243 2.454600 -7.125000 0.000000 0.000000 -9.625300 38.878000 1.467700 6.809501 0.440044 -2.450063 -58.432550 23.522104 4.734456 -16.853395 31.330018 -2.670042 -0.176497 -3.066165 55.231033 30.373012 -14.192115 -6.466600 7.125000 0.000000 0.000000 44.310500 -37.882900 10.424800 
-1.324835 18.925180 -0.311274 -175.418476 -59.696764 170.789254 -1.841464 3.077120 2.162709 -4.937155 12.386666 -5.724175 3.886714 11.040691 33.829647 -1.121796 12.046766 15.970347 4.273800 -12.516000 -37.582900 0.533651 -4.213491 1.922394 21.321227 10.796491 -0.845026 -3.316023 -9.159574 30.620088 4.877523 -21.346430 -6.664526 -0.078200 -1.804400 4.965300 1.492849 -3.329277 2.956563 1.563611 -4.757078 -5.450981 6.715324 -1.360916 -4.930222 -8.279096 -19.073978 1.771633 1.042133 -24.883590 1.246683 4.427100 -11.512300 1.425500 -3.002379 3.469226 -0.271054 108.424581 -58.248659 -136.623974 15.756326 -28.070957 -3.180902 0.823089 -0.016674 129.564197 15.846752 8.138903 2.178100 -7.125000 0.000000 0.000000 -8.904800 37.598100 1.638000 6.835482 0.448173 -2.463693 -59.246381 23.537865 6.133706 -16.982682 31.518147 -2.700783 -0.093183 -3.084671 54.196282 30.280371 -13.480259 -6.070600 7.125000 0.000000 0.000000 43.855400 -37.310600 11.112200 
